<?xml version="1.0" standalone="no"?>
<!DOCTYPE svg PUBLIC "-//W3C//DTD SVG 20010904//EN"
 "http://www.w3.org/TR/2001/REC-SVG-20010904/DTD/svg10.dtd">
<svg version="1.0" xmlns="http://www.w3.org/2000/svg"
 width="236.000000pt" height="358.000000pt" viewBox="0 0 236.000000 358.000000"
 preserveAspectRatio="xMidYMid meet">
<g transform="translate(0.000000,358.000000) scale(0.100000,-0.100000)"
fill="#618C03" stroke="none">
<path d="M421 3228 c0 -7 21 -29 47 -49 26 -20 177 -140 335 -268 159 -127
292 -229 298 -226 14 9 12 528 -3 543 -18 18 -678 17 -677 0z m625 -31 c3 -9
10 -14 16 -11 7 4 6 9 -2 14 -9 6 -9 9 0 15 6 4 14 4 18 1 12 -12 1 -430 -11
-438 -9 -6 -9 -8 0 -8 7 0 18 -10 24 -22 12 -22 11 -22 -8 -5 -24 21 -40 23
-23 2 9 -11 9 -15 1 -15 -6 0 -16 10 -21 23 -5 12 -9 18 -10 12 0 -6 -3 -6 -8
1 -4 6 -26 24 -49 41 -33 23 -39 33 -30 42 9 10 8 11 -5 6 -17 -7 -75 27 -91
53 -5 7 -13 9 -19 6 -7 -4 -8 -2 -4 5 4 6 0 14 -11 18 -25 8 -63 44 -58 53 3
4 -3 7 -13 6 -9 0 -16 5 -14 12 1 8 -2 11 -8 7 -5 -3 -13 1 -16 9 -3 9 -10 13
-15 10 -5 -3 -8 0 -7 8 2 7 -2 12 -8 11 -6 -1 -11 5 -11 13 0 10 7 12 21 9 18
-5 19 -4 4 5 -20 12 -51 3 -41 -14 3 -6 -3 -3 -15 8 -12 10 -19 24 -15 30 3 6
3 8 -2 4 -10 -10 -67 31 -60 43 4 5 0 6 -8 3 -8 -3 -23 6 -35 20 -11 14 -25
26 -31 26 -6 0 -11 3 -11 8 0 4 128 7 285 7 264 0 286 -1 291 -18z"/>
<path d="M518 3193 c6 -2 18 -2 25 0 6 3 1 5 -13 5 -14 0 -19 -2 -12 -5z"/>
<path d="M769 3007 c5 -5 7 -15 5 -22 -3 -6 1 -17 9 -23 11 -9 14 -8 14 3 0 8
-4 12 -9 9 -13 -8 -6 29 7 38 5 4 0 6 -13 5 -13 -1 -18 -5 -13 -10z"/>
<path d="M866 2922 c-2 -4 -1 -14 4 -22 7 -11 9 -9 7 8 -1 24 -3 26 -11 14z"/>
<path d="M390 2581 c0 -288 4 -512 9 -515 7 -5 272 192 399 295 16 13 82 64
146 113 64 49 116 94 116 101 0 6 -12 23 -27 37 -61 57 -615 478 -628 478 -13
0 -15 -70 -15 -509z m68 444 c16 -13 33 -21 37 -17 5 4 5 2 2 -4 -4 -7 1 -18
10 -25 14 -12 16 -12 8 1 -6 12 -5 13 5 3 11 -10 11 -15 0 -30 -12 -15 -12
-16 0 -5 18 15 34 16 24 0 -4 -6 -3 -8 3 -5 6 4 24 0 39 -8 16 -8 23 -15 16
-15 -7 0 -10 -5 -7 -10 4 -6 9 -8 13 -6 4 2 16 -2 27 -10 10 -8 14 -14 9 -14
-6 0 -15 5 -20 10 -7 7 -11 6 -11 -4 0 -9 10 -13 28 -12 15 1 26 -1 24 -4 -2
-3 12 -14 30 -24 19 -11 33 -22 31 -25 -2 -3 8 -15 22 -25 15 -12 22 -14 17
-5 -5 8 2 5 16 -6 33 -27 38 -35 34 -57 -2 -10 0 -16 6 -13 5 4 6 11 3 17 -4
5 4 4 17 -2 23 -13 39 -31 40 -47 1 -13 21 -33 33 -33 6 0 5 4 -3 9 -12 8 -26
41 -17 41 1 0 15 -14 32 -32 16 -17 24 -28 18 -25 -6 3 -11 0 -11 -8 0 -11 4
-12 13 -4 14 11 34 4 34 -12 0 -6 -5 -7 -12 -3 -7 4 -8 3 -4 -4 4 -6 13 -9 21
-5 8 3 15 0 15 -5 0 -6 8 -19 18 -28 13 -14 13 -16 2 -12 -16 6 -43 -16 -33
-26 4 -3 0 -6 -8 -6 -8 0 -25 -13 -39 -29 -13 -17 -28 -27 -33 -24 -4 3 -23
-10 -40 -29 -18 -19 -48 -45 -67 -58 -19 -13 -60 -44 -90 -69 -30 -25 -51 -41
-48 -35 4 6 1 11 -7 11 -8 0 -12 -4 -9 -8 3 -5 -5 -16 -17 -26 -12 -10 -33
-29 -47 -43 -16 -16 -20 -18 -11 -5 13 18 12 19 -2 8 -9 -7 -19 -10 -23 -6 -4
4 -4 1 -1 -8 3 -9 -6 -23 -27 -39 -18 -13 -27 -17 -21 -9 10 13 10 16 -2 16
-8 0 -13 -2 -10 -5 7 -7 -15 -43 -23 -38 -7 4 -33 -18 -29 -26 1 -2 -1 -1 -5
2 -9 7 -16 940 -7 940 4 0 21 -11 37 -25z m567 -425 c3 -5 1 -10 -4 -10 -6 0
-11 5 -11 10 0 6 2 10 4 10 3 0 8 -4 11 -10z"/>
<path d="M580 2879 c0 -5 5 -7 10 -4 6 3 10 8 10 11 0 2 -4 4 -10 4 -5 0 -10
-5 -10 -11z"/>
<path d="M880 2647 c0 -2 6 -10 14 -16 11 -9 16 -9 22 1 4 7 4 10 -1 6 -4 -4
-14 -3 -22 3 -7 6 -13 9 -13 6z"/>
<path d="M887 2529 c7 -7 15 -10 18 -7 3 3 -2 9 -12 12 -14 6 -15 5 -6 -5z"/>
<path d="M900 2496 c4 -4 16 -4 26 2 16 9 14 10 -8 9 -15 -1 -23 -6 -18 -11z"/>
<path d="M810 2446 c12 -12 13 -29 2 -22 -5 3 -9 -1 -9 -8 0 -11 4 -12 18 -3
10 6 15 15 13 19 -3 4 0 8 5 8 6 0 11 4 11 8 0 4 -11 8 -25 8 -17 0 -22 -3
-15 -10z"/>
<path d="M724 2359 c0 -13 3 -15 13 -7 7 6 13 12 13 13 0 2 -6 5 -13 8 -7 3
-13 -3 -13 -14z"/>
<path d="M512 2204 c10 -10 20 -16 22 -13 3 3 -5 11 -17 18 -21 13 -21 12 -5
-5z"/>
<path d="M1705 2964 c-88 -69 -231 -179 -317 -246 -96 -74 -158 -128 -158
-139 0 -10 74 -74 193 -166 105 -82 250 -194 320 -249 71 -54 134 -99 140 -99
9 0 13 126 15 513 2 483 1 512 -15 511 -10 0 -90 -56 -178 -125z m169 -378 c1
-305 -2 -466 -9 -466 -5 0 -3 -5 5 -10 8 -5 11 -10 5 -10 -17 1 -45 27 -37 35
4 5 2 5 -5 1 -7 -4 -21 1 -31 11 -10 10 -27 23 -38 29 -15 9 -17 14 -7 26 10
12 10 15 -2 15 -8 0 -12 -4 -9 -9 14 -22 -27 -4 -49 21 -14 17 -26 28 -28 27
-2 -2 -13 6 -24 17 -11 11 -14 16 -6 12 10 -5 12 -4 7 4 -4 6 -11 9 -16 6 -5
-3 -15 1 -23 9 -8 8 -18 12 -22 8 -5 -4 -5 1 -2 11 4 11 2 17 -6 16 -32 -4
-46 3 -56 31 -5 17 -13 30 -16 30 -3 0 -3 -4 0 -10 3 -6 -1 -7 -10 -4 -9 4
-14 13 -11 20 3 8 1 14 -4 14 -6 0 -10 -5 -10 -12 0 -8 -6 -7 -16 4 -16 16
-11 43 7 33 5 -4 9 -1 9 4 0 14 -17 14 -25 1 -5 -9 -34 -3 -45 9 -3 4 -22 19
-43 34 -20 16 -35 32 -32 37 3 4 -5 6 -17 2 -14 -3 -19 -2 -14 6 4 7 3 12 -1
12 -5 0 -18 7 -29 16 -10 8 -13 12 -5 8 11 -5 13 -3 8 9 -3 10 -3 17 1 17 8 0
28 14 94 68 22 17 44 32 50 32 5 0 6 6 2 13 -5 8 -2 7 9 -2 10 -8 20 -11 24
-7 3 3 1 6 -5 6 -7 0 -12 5 -12 11 0 6 7 9 15 5 8 -3 14 -2 12 2 -1 4 9 19 22
32 13 14 21 20 18 14 -3 -6 0 -11 7 -11 9 0 12 7 8 15 -4 11 -1 14 12 9 11 -5
15 -3 10 5 -5 8 -2 9 9 5 10 -4 16 -2 14 6 -1 7 3 11 10 10 7 -2 10 3 7 11 -3
8 0 17 7 22 8 5 10 3 4 -6 -5 -7 3 -5 17 6 14 10 24 22 21 27 -2 4 0 7 6 7 6
0 23 12 38 26 54 50 66 59 59 46 -6 -10 -2 -10 18 0 14 6 26 16 26 21 0 5 -8
3 -17 -4 -16 -13 -17 -12 -5 3 8 9 20 14 28 11 9 -3 14 0 12 8 -2 7 3 14 10
15 6 1 17 2 22 3 6 0 9 7 8 14 -2 6 5 11 14 11 10 -1 17 1 16 5 -1 15 2 24 8
18 3 -3 7 -215 8 -471z"/>
<path d="M1657 2886 c-15 -22 -15 -24 0 -22 9 2 17 12 18 24 2 28 1 27 -18 -2z"/>
<path d="M1576 2792 c-3 -5 1 -9 9 -9 8 0 12 4 9 9 -3 4 -7 8 -9 8 -2 0 -6 -4
-9 -8z"/>
<path d="M1479 2744 c-1 -2 -2 -7 -3 -11 -1 -5 -5 -15 -10 -23 -7 -11 -4 -10
10 2 15 13 23 15 31 7 9 -9 11 -7 9 6 -2 16 -34 31 -37 19z"/>
<path d="M1496 2452 c-3 -5 1 -9 9 -9 8 0 12 4 9 9 -3 4 -7 8 -9 8 -2 0 -6 -4
-9 -8z"/>
<path d="M1560 2371 c0 -8 -7 -11 -17 -6 -15 5 -16 4 -5 -6 9 -10 15 -10 24
-1 6 6 9 15 5 19 -4 3 -7 1 -7 -6z"/>
<path d="M1771 2197 c-13 -21 -12 -21 5 -5 10 10 16 20 13 22 -3 3 -11 -5 -18
-17z"/>
<path d="M1797 2193 c-4 -3 -7 -11 -7 -17 0 -6 5 -5 12 2 6 6 9 14 7 17 -3 3
-9 2 -12 -2z"/>
<path d="M1589 2923 c-13 -17 -13 -17 6 -3 11 8 22 16 24 17 2 2 0 3 -6 3 -6
0 -17 -8 -24 -17z"/>
<path d="M1469 2843 c-13 -16 -12 -17 4 -4 9 7 17 15 17 17 0 8 -8 3 -21 -13z"/>
<path d="M1080 2636 c0 -2 8 -10 18 -17 15 -13 16 -12 3 4 -13 16 -21 21 -21
13z"/>
<path d="M964 2358 c-65 -51 -198 -154 -294 -227 -196 -151 -230 -179 -230
-197 0 -7 72 -68 159 -136 404 -313 483 -373 494 -373 16 0 17 1017 1 1022 -6
2 -64 -38 -130 -89z m121 -403 c0 -362 -3 -464 -12 -461 -7 3 -15 0 -19 -6 -5
-7 -2 -8 6 -3 8 5 11 4 6 -3 -3 -5 0 -13 6 -15 9 -4 10 -6 1 -6 -6 -1 -18 8
-26 19 -8 11 -17 17 -22 12 -4 -4 -5 1 -2 11 5 12 3 16 -4 11 -7 -4 -21 4 -31
17 -11 13 -17 17 -13 9 4 -9 0 -8 -8 3 -9 10 -17 17 -19 15 -2 -2 -24 15 -50
36 -28 24 -43 43 -37 47 7 4 5 9 -6 12 -9 4 -13 3 -10 -3 9 -14 -3 -12 -21 3
-48 39 -87 77 -73 72 10 -4 19 -2 23 3 6 10 -24 10 -41 -1 -6 -4 -18 4 -26 17
-12 18 -13 26 -4 37 7 7 2 5 -9 -4 -21 -18 -22 -18 -38 5 -9 13 -19 22 -21 20
-11 -6 -56 32 -51 43 2 7 -2 12 -9 11 -8 0 -37 17 -65 39 l-51 40 23 18 c13 9
36 30 53 45 16 15 25 20 20 12 -6 -9 -1 -6 10 7 12 13 28 23 37 23 9 0 19 9
23 19 3 10 19 24 35 31 17 7 30 16 30 21 0 5 12 14 26 19 15 6 22 14 18 22 -4
6 -3 8 4 4 6 -3 14 -1 17 5 4 5 14 8 22 4 13 -4 14 -3 3 10 -8 10 -9 15 -1 15
6 0 30 17 53 37 26 22 35 28 23 13 -11 -14 2 -4 30 23 44 42 62 52 88 48 5 -1
6 3 2 9 -4 6 -1 18 6 26 10 13 15 12 33 -5 21 -20 22 -20 22 -1 0 10 -3 18 -6
18 -22 -2 -18 6 16 31 21 16 39 30 39 30 0 1 0 -208 0 -464z"/>
<path d="M1065 2390 c-3 -5 -1 -10 4 -10 6 0 11 5 11 10 0 6 -2 10 -4 10 -3 0
-8 -4 -11 -10z"/>
<path d="M691 2086 c-9 -11 -9 -16 0 -22 7 -4 9 -3 5 4 -3 6 2 15 11 21 10 6
13 11 7 11 -6 0 -17 -6 -23 -14z"/>
<path d="M520 1896 c0 -2 11 -11 25 -20 14 -9 25 -13 25 -8 0 5 -11 14 -25 20
-14 6 -25 10 -25 8z"/>
<path d="M626 1808 c3 -5 10 -6 15 -3 13 9 11 12 -6 12 -8 0 -12 -4 -9 -9z"/>
<path d="M672 1794 c-7 -8 -8 -14 -3 -14 10 0 25 19 20 25 -2 1 -10 -3 -17
-11z"/>
<path d="M960 1576 c0 -2 7 -7 16 -10 8 -3 12 -2 9 4 -6 10 -25 14 -25 6z"/>
<path d="M1180 1941 c0 -349 3 -512 11 -516 5 -4 36 13 67 37 31 25 177 138
325 252 147 114 267 213 267 220 0 7 -10 22 -22 33 -57 53 -622 483 -634 483
-12 0 -14 -85 -14 -509z m57 454 c4 -4 2 -5 -4 -1 -7 4 -13 5 -13 2 0 -2 20
-15 45 -27 24 -12 42 -26 39 -31 -5 -7 10 -12 29 -9 5 1 6 -3 2 -8 -3 -6 12
-19 35 -31 22 -11 40 -26 40 -32 0 -6 -8 -4 -18 5 -10 10 -22 17 -26 17 -5 0
2 -9 15 -21 14 -12 18 -19 8 -16 -9 3 -16 -1 -16 -8 0 -10 5 -11 18 -4 10 5
21 13 24 19 8 12 55 -29 55 -49 0 -14 2 -14 10 -1 8 13 11 11 16 -7 4 -13 11
-23 16 -23 5 0 6 5 2 11 -3 6 5 3 20 -6 27 -18 36 -31 14 -20 -7 3 -4 0 6 -7
11 -7 30 -24 42 -36 13 -14 29 -21 36 -17 7 3 4 -1 -7 -10 -19 -16 -19 -16 8
-11 15 3 25 1 22 -3 -2 -5 9 -14 25 -21 16 -7 35 -19 42 -28 11 -13 11 -15 -2
-8 -9 4 -8 2 2 -7 10 -8 14 -18 10 -22 -4 -5 -1 -5 6 -1 7 4 9 13 5 19 -4 7 0
6 10 -2 9 -7 14 -18 10 -24 -4 -6 0 -8 11 -4 10 4 15 3 11 -3 -3 -6 0 -10 8
-10 8 0 21 -8 28 -17 7 -10 10 -15 6 -11 -5 3 -23 -8 -41 -25 -40 -40 -75 -63
-88 -59 -5 1 -7 -2 -4 -7 8 -13 -63 -73 -80 -67 -8 3 -11 0 -7 -10 3 -8 -1
-14 -11 -14 -9 0 -16 -4 -16 -10 0 -5 -9 -10 -21 -10 -13 0 -18 -4 -13 -12 5
-8 0 -7 -11 2 -10 8 -16 10 -12 4 3 -6 -9 -25 -27 -43 -27 -26 -39 -31 -69
-28 -20 2 -34 1 -32 -3 3 -5 -2 -11 -11 -14 -13 -5 -14 -9 -4 -21 8 -10 9 -19
1 -32 -6 -10 -11 -15 -11 -10 0 4 -9 -2 -20 -13 -12 -12 -26 -17 -36 -13 -12
4 -15 3 -10 -5 4 -7 3 -12 -2 -12 -5 0 -27 -18 -48 -39 -21 -22 -42 -38 -46
-35 -11 7 -10 34 2 34 5 0 7 -8 3 -17 -5 -15 -3 -16 7 -6 10 9 10 16 2 25 -7
10 -12 154 -14 465 -3 451 -2 472 29 438z m195 -769 c-11 -6 -21 -15 -21 -19
1 -5 -3 -12 -7 -15 -4 -4 -4 -2 -1 4 4 7 -1 15 -11 19 -15 6 -14 8 7 20 14 7
31 10 39 7 11 -4 10 -8 -6 -16z"/>
<path d="M1764 1946 c1 -8 5 -18 8 -22 4 -3 5 1 4 10 -1 8 -5 18 -8 22 -4 3
-5 -1 -4 -10z"/>
<path d="M1683 1883 c0 -9 4 -10 13 -2 8 7 14 7 18 0 4 -6 13 -8 22 -4 21 8 8
18 -25 19 -16 0 -28 -5 -28 -13z"/>
<path d="M1649 1803 c-13 -16 -12 -17 4 -4 9 7 17 15 17 17 0 8 -8 3 -21 -13z"/>
<path d="M1600 1806 c0 -2 8 -10 18 -17 15 -13 16 -12 3 4 -13 16 -21 21 -21
13z"/>
<path d="M1325 1560 c-3 -6 1 -7 9 -4 18 7 21 14 7 14 -6 0 -13 -4 -16 -10z"/>
<path d="M944 2422 c4 -3 14 -7 22 -8 9 -1 13 0 10 4 -4 3 -14 7 -22 8 -9 1
-13 0 -10 -4z"/>
<path d="M1496 2292 c-3 -5 1 -9 9 -9 8 0 12 4 9 9 -3 4 -7 8 -9 8 -2 0 -6 -4
-9 -8z"/>
<path d="M1526 2273 c-6 -14 -5 -15 5 -6 7 7 10 15 7 18 -3 3 -9 -2 -12 -12z"/>
<path d="M692 2198 c-7 -7 -12 -8 -12 -4 0 5 -7 3 -15 -4 -8 -7 -15 -18 -15
-24 0 -6 5 -3 11 7 6 9 14 15 18 12 5 -2 14 2 21 10 15 18 9 20 -8 3z"/>
<path d="M403 1965 c0 -8 4 -12 9 -9 5 3 6 10 3 15 -9 13 -12 11 -12 -6z"/>
<path d="M1816 1851 c-4 -5 -2 -12 3 -15 5 -4 12 -2 15 3 4 5 2 12 -3 15 -5 4
-12 2 -15 -3z"/>
<path d="M390 1295 c0 -405 3 -515 13 -515 6 0 156 112 332 248 240 186 320
253 320 269 0 16 -79 82 -318 267 -175 135 -324 246 -332 246 -13 0 -15 -70
-15 -515z m53 452 c-3 -6 -1 -7 6 -3 7 5 21 -2 35 -16 12 -12 29 -24 36 -26
19 -4 30 -23 23 -36 -3 -5 -1 -6 4 -3 14 9 70 -19 77 -39 4 -10 2 -13 -6 -8
-7 4 -8 3 -4 -4 4 -6 12 -9 19 -6 7 2 31 -13 55 -35 23 -21 42 -37 42 -34 0
15 90 -64 94 -83 4 -13 11 -24 17 -24 7 0 6 6 -2 17 -12 14 -10 14 14 -1 15
-10 27 -22 27 -27 0 -5 6 -8 13 -7 6 2 11 -3 9 -10 -1 -8 2 -11 7 -8 5 3 14
-1 21 -9 7 -8 17 -12 24 -8 6 3 8 2 3 -2 -13 -15 -49 -17 -41 -3 6 9 3 9 -9
-1 -22 -17 -12 -34 13 -21 13 7 21 7 25 0 4 -6 10 -8 15 -5 4 3 16 2 25 -1 12
-5 13 -9 5 -14 -7 -4 2 -10 22 -15 18 -4 27 -9 20 -12 -6 -2 -10 -9 -6 -14 3
-5 -4 -9 -15 -9 -12 0 -21 -5 -21 -11 0 -5 6 -7 12 -3 10 6 9 3 0 -9 -10 -12
-20 -14 -37 -7 -24 9 -38 4 -29 -11 2 -4 12 -6 22 -3 9 3 7 -1 -6 -8 -12 -8
-19 -18 -15 -23 4 -5 -5 -1 -22 10 l-30 18 19 -21 c11 -12 14 -22 8 -22 -6 0
-18 -8 -27 -17 -15 -14 -20 -15 -39 -3 -19 12 -20 12 -7 -4 12 -14 12 -19 1
-29 -10 -10 -11 -9 -5 3 7 12 6 13 -6 2 -8 -7 -14 -17 -14 -22 0 -6 -3 -9 -6
-7 -4 1 -16 -6 -27 -16 -11 -10 -26 -17 -33 -15 -7 2 -18 -6 -23 -17 -5 -11
-28 -36 -50 -55 -23 -19 -33 -25 -23 -14 14 17 14 21 3 21 -8 0 -14 -3 -14 -6
3 -17 -15 -39 -28 -34 -9 3 -13 0 -10 -8 3 -8 -18 -32 -48 -55 -42 -33 -52
-37 -52 -22 0 10 7 18 18 18 17 0 37 19 21 21 -4 0 -16 2 -26 4 -9 2 -15 -1
-12 -5 3 -5 1 -11 -4 -15 -6 -3 -8 -12 -4 -20 3 -8 0 -15 -6 -15 -6 0 -10 -3
-8 -7 1 -5 -2 -9 -6 -10 -4 -1 -15 -9 -23 -18 -39 -39 -40 -32 -38 438 0 250
4 459 8 465 3 6 2 13 -4 17 -5 3 -10 10 -10 15 0 6 9 2 19 -7 11 -9 17 -21 14
-26z m298 -690 c-10 -9 -11 -8 -5 6 3 10 9 15 12 12 3 -3 0 -11 -7 -18z"/>
<path d="M596 1597 c3 -10 9 -15 12 -12 3 3 0 11 -7 18 -10 9 -11 8 -5 -6z"/>
<path d="M571 947 c-13 -21 -12 -21 5 -5 10 10 16 20 13 22 -3 3 -11 -5 -18
-17z"/>
<path d="M1798 1752 c-40 -32 -172 -134 -293 -226 -239 -184 -275 -214 -275
-231 0 -20 646 -519 660 -510 7 4 10 181 10 516 0 435 -2 509 -14 509 -8 0
-48 -26 -88 -58z m77 -441 c0 -258 -3 -467 -7 -464 -5 2 -8 -1 -8 -6 0 -6 5
-11 12 -11 6 0 9 -3 6 -6 -4 -3 -23 6 -45 20 -41 27 -97 72 -74 60 9 -5 12 -3
7 5 -4 6 -13 10 -20 9 -6 -2 -30 12 -51 31 -22 18 -34 30 -26 26 10 -6 12 -4
7 4 -5 7 -14 10 -21 7 -9 -3 -12 2 -10 15 3 17 1 18 -9 9 -8 -6 -16 -7 -18 -2
-1 4 -29 27 -61 51 -48 35 -57 46 -51 64 6 22 6 22 -10 2 -17 -20 -17 -20 -11
5 4 17 3 21 -3 12 -8 -12 -13 -12 -31 -1 -11 8 -21 17 -21 20 0 3 -22 20 -50
37 -32 20 -48 36 -44 45 4 11 -2 14 -20 12 -15 -2 -24 1 -21 5 3 5 -4 11 -15
15 -11 3 -20 11 -20 16 0 6 6 7 13 3 7 -5 6 0 -3 11 -8 10 -10 16 -3 12 6 -4
25 8 44 28 18 19 35 33 37 30 2 -2 13 5 25 16 11 10 27 19 34 19 8 0 12 4 8 9
-3 5 9 21 27 35 30 23 34 24 50 9 11 -10 18 -12 18 -5 0 7 -6 12 -12 12 -7 0
4 16 25 36 31 28 41 33 53 24 7 -7 11 -17 7 -24 -3 -6 -2 -7 2 -3 5 4 10 20
12 35 2 23 1 24 -7 7 -6 -15 -9 -16 -9 -4 -1 9 18 29 42 45 23 16 44 31 47 34
28 28 72 63 67 54 -3 -6 0 -11 8 -11 8 0 12 3 10 7 -2 3 1 12 6 20 8 13 10 13
20 0 9 -13 10 -12 5 2 -3 12 4 23 24 35 16 9 26 21 23 27 -4 5 0 7 10 3 9 -3
18 0 21 9 3 8 7 14 8 14 2 0 3 -211 3 -469z"/>
<path d="M1535 1509 c-3 -4 2 -6 10 -5 21 3 28 13 10 13 -9 0 -18 -4 -20 -8z"/>
<path d="M1435 1441 c-3 -5 -2 -12 3 -15 5 -3 9 1 9 9 0 17 -3 19 -12 6z"/>
<path d="M1326 1352 c-2 -4 4 -8 14 -8 10 0 16 4 14 8 -3 4 -9 8 -14 8 -5 0
-11 -4 -14 -8z"/>
<path d="M1400 1349 c0 -5 5 -7 10 -4 6 3 10 8 10 11 0 2 -4 4 -10 4 -5 0 -10
-5 -10 -11z"/>
<path d="M1345 1241 c-3 -5 -2 -12 3 -15 5 -3 9 1 9 9 0 17 -3 19 -12 6z"/>
<path d="M1557 1069 c7 -7 15 -10 18 -7 3 3 -2 9 -12 12 -14 6 -15 5 -6 -5z"/>
<path d="M1726 928 c3 -5 10 -6 15 -3 13 9 11 12 -6 12 -8 0 -12 -4 -9 -9z"/>
<path d="M1796 887 c3 -10 9 -15 12 -12 3 3 0 11 -7 18 -10 9 -11 8 -5 -6z"/>
<path d="M1827 859 c7 -7 15 -10 18 -7 3 3 -2 9 -12 12 -14 6 -15 5 -6 -5z"/>
<path d="M703 1635 c0 -8 4 -12 9 -9 5 3 6 10 3 15 -9 13 -12 11 -12 -6z"/>
<path d="M1470 1586 c0 -2 8 -10 18 -17 15 -13 16 -12 3 4 -13 16 -21 21 -21
13z"/>
<path d="M975 1439 c-4 -6 -5 -12 -2 -15 2 -3 7 2 10 11 7 17 1 20 -8 4z"/>
<path d="M1300 1446 c0 -2 7 -7 16 -10 8 -3 12 -2 9 4 -6 10 -25 14 -25 6z"/>
<path d="M1187 1163 c-4 -3 -7 -124 -7 -268 0 -190 3 -264 12 -273 9 -9 99
-12 343 -12 183 0 335 3 339 7 4 4 -2 14 -13 23 -10 8 -163 131 -339 273 -176
141 -322 257 -324 257 -3 0 -8 -3 -11 -7z m91 -83 c38 -31 59 -62 30 -44 -7 5
-8 3 -3 -5 5 -8 11 -9 17 -3 7 7 16 5 27 -4 9 -8 32 -27 51 -44 19 -16 32 -30
28 -30 -4 0 -14 8 -24 17 -22 22 -43 25 -40 6 3 -21 23 -31 57 -27 19 3 32 -1
35 -11 4 -8 11 -12 17 -8 6 4 7 1 3 -6 -5 -7 -15 -10 -23 -7 -8 3 -11 1 -8 -5
4 -5 16 -7 27 -3 15 4 18 3 13 -7 -6 -9 -3 -11 8 -6 10 3 17 2 17 -3 0 -6 5
-9 12 -8 6 2 17 -7 23 -19 7 -13 14 -20 18 -17 3 3 18 -6 34 -22 15 -15 19
-21 8 -13 -18 13 -19 13 -6 -3 7 -10 17 -16 21 -13 5 3 23 -7 42 -22 18 -15
35 -28 37 -30 2 -1 -2 -9 -8 -17 -8 -10 -9 -16 -1 -21 6 -4 9 -1 8 6 -6 26 19
17 61 -21 24 -22 47 -40 52 -40 17 0 19 -19 2 -19 -10 -1 -25 -1 -33 -2 -8 0
-140 3 -292 7 -189 5 -278 11 -278 18 -3 143 -1 449 4 453 3 3 0 13 -7 22 -11
14 -10 15 8 1 11 -8 39 -30 63 -50z m115 -114 c4 -10 1 -13 -8 -9 -8 3 -12 9
-9 14 7 12 11 11 17 -5z"/>
<path d="M1763 665 c0 -8 4 -12 9 -9 5 3 6 10 3 15 -9 13 -12 11 -12 -6z"/>
<path d="M810 1046 c0 -2 7 -7 16 -10 8 -3 12 -2 9 4 -6 10 -25 14 -25 6z"/>
<path d="M1896 652 c-3 -5 1 -9 9 -9 8 0 12 4 9 9 -3 4 -7 8 -9 8 -2 0 -6 -4
-9 -8z"/>
</g>
</svg>
